<svg xmlns="http://www.w3.org/2000/svg" viewBox="0 0 1353.48 250.37"><defs><style>.cls-1{fill:#13cc0d;stroke:#13cc0d;stroke-miterlimit:10;stroke-width:7px;}.cls-2{fill:#fff;}</style></defs><title>logo</title><g id="Layer_2" data-name="Layer 2"><g id="Layer_1-2" data-name="Layer 1"><path class="cls-1" d="M32.14,104.79a338.72,338.72,0,0,0,29.25,24.62A334.09,334.09,0,0,0,34,155.81C23.14,167.61,10,184.32,8.64,197c-.47,4.5.59,8.18,3.15,10.92,3.28,3.51,8.41,4.89,14.48,4.89,10.73,0,24.4-4.33,35.88-8.94q13.26-5.39,25.85-12c1.31,6.44,2.82,12.51,4.52,18.12,7.31,24.17,17.15,36.94,28.46,36.94s21.15-12.77,28.45-36.94a212.77,212.77,0,0,0,5.81-25c8.79,3.86,17.25,7.16,25.19,9.79,10.87,3.6,23.56,6.87,33.87,6.87,7.22,0,13.27-1.6,16.69-5.81,2.34-2.88,3.13-6.59,2.33-11-2.24-12.52-16.65-28.43-28.34-39.57-6.71-6.39-14.27-12.9-22.53-19.43,7.63-6.91,14.59-13.77,20.72-20.46,10.82-11.79,24-28.51,25.31-41.15.48-4.5-.58-8.18-3.15-10.92-9.07-9.71-32.39-3.15-50.36,4-6.26,2.51-12.82,5.48-19.6,8.84a215,215,0,0,0-5.94-25.73C142.13,16.27,132.29,3.5,121,3.5S99.83,16.27,92.52,40.44a216.29,216.29,0,0,0-6.09,26.65A299.56,299.56,0,0,0,56.7,55.26C38.22,49.14,14.44,44,6.13,54.21,3.79,57.08,3,60.79,3.8,65.22,6,77.74,20.45,93.65,32.14,104.79ZM211,54.28c4.49,0,7.75.95,9.55,2.89,1.37,1.47,1.92,3.64,1.62,6.45-1.35,12.8-18.68,34.87-44.65,58.32q-8.44-6.45-17.73-12.87a345.36,345.36,0,0,0-3.37-36.64c23.73-12,43.15-18.15,54.58-18.15Zm-51,62.43q6.63,4.7,12.8,9.41-6.17,5.4-12.89,10.83c.12-3.89.17-7.81.17-11.77q0-4.26-.08-8.48Zm-.41,28.35q9.56-7.51,18.19-15.08c27.89,22,47,43.09,49.26,55.81.49,2.76.11,4.93-1.13,6.46-4.53,5.57-20.72,4.43-43.31-3.07q-13.46-4.53-26.34-10.33c1.61-10.62,2.73-22,3.33-33.79ZM89,148.73q3.42,2.22,6.91,4.42c7.64,4.79,15.3,9.33,22.89,13.58-9,5.83-17.73,11.06-26.05,15.66A320.48,320.48,0,0,1,89,148.73Zm54.29,59.6c-6.17,20.42-14.51,32.6-22.3,32.6s-16.13-12.18-22.31-32.6c-1.82-6-3.42-12.63-4.79-19.66,10.08-5.49,20.48-11.76,31-18.63,8.29,4.47,16.46,8.57,24.4,12.23a212.61,212.61,0,0,1-5.95,26.06Zm6.92-32.24c-6.43-3-13-6.3-19.67-9.85q6.39-4.34,12.78-8.94,4.86-3.51,9.56-7.07c-.58,9-1.48,17.64-2.67,25.86Zm.18-100.56c1.29,9.21,2.22,19,2.75,29.07q-5.82-3.88-11.91-7.71-6.81-4.29-13.65-8.29c7.89-4.86,15.53-9.21,22.81-13.06ZM98.67,42c6.18-20.42,14.51-32.6,22.31-32.6s16.13,12.18,22.3,32.6a213.54,213.54,0,0,1,6.13,27.16c-9,4.7-18.35,10.06-27.8,16-9.89-5.62-19.68-10.74-29.19-15.27A217.39,217.39,0,0,1,98.67,42ZM91.49,76.12c8,3.84,16.1,8.1,24.33,12.72-7.32,4.72-14.69,9.74-22,15q-2.59,1.88-5.15,3.77c.49-11,1.45-21.55,2.82-31.51ZM88.4,115.46Q93,112,97.74,108.55q12.27-8.86,24-16.32,7.92,4.59,15.87,9.58,8.13,5.1,15.82,10.36.21,6.43.21,13c0,5.73-.12,11.41-.36,17q-6.76,5.25-13.93,10.44-7.53,5.44-14.89,10.35c-8.28-4.56-16.66-9.49-25-14.74q-5.55-3.48-10.88-7-.33-7.89-.33-16,0-4.91.12-9.73Zm-1.57,70.13c-26.49,14-48.26,21.3-60.66,21.3-4.48,0-7.74-1-9.55-2.89-1.37-1.47-1.92-3.64-1.62-6.46,1.47-13.88,21.75-38.69,51.48-64.34q7.63,5.61,15.87,11.14a328.8,328.8,0,0,0,4.48,41.25Zm-4.77-48.83q-5.53-3.81-10.78-7.65,5.16-4.32,10.64-8.63,0,2.34,0,4.71c0,3.88,0,7.74.17,11.57Zm-70.83-79c4.53-5.57,20.72-4.42,43.31,3.07A297.24,297.24,0,0,1,85.46,73.27a349.9,349.9,0,0,0-3.37,39.32q-8.27,6.33-15.9,12.73C34.62,101.5,12.56,78,10.11,64.25c-.5-2.76-.12-4.94,1.12-6.47Z"/><polygon class="cls-2" points="345.87 153.43 294.79 72.14 294.79 153.43 270.32 153.43 270.32 29.24 294.01 29.24 345.25 110.86 345.25 29.24 369.56 29.24 369.56 153.43 345.87 153.43"/><path class="cls-2" d="M367.81,31V151.68h-21L293,66.05v85.63h-21V31h21l54,86V31h20.81m3.5-3.5H343.5v77.28L296,29.13l-1-1.64H268.56V155.18h28v-77l47.33,75.32,1,1.64h26.41V27.49Z"/><polygon class="cls-2" points="493.79 153.43 493.79 111.89 495.45 69.22 463.17 153.43 445.76 153.43 413.57 69.32 415.23 111.82 415.23 153.43 390.84 153.43 390.84 29.24 420.99 29.24 454.59 118.51 488.11 29.24 518.18 29.24 518.18 153.43 493.79 153.43"/><path class="cls-2" d="M516.43,31V151.68H495.54V111.89l2.07-53.22-35.64,93H447L411.41,58.76l2.07,53.13v39.79H392.59V31h27.19l34.81,92.5L489.32,31h27.11m3.5-3.5h-33L486,29.76l-31.45,83.77L423.06,29.76l-.86-2.27H389.09V155.18H417V111.75l-1.24-31.87,27.95,73.05.86,2.25h19.83l.86-2.25,28-73.17-1.24,32v43.43h27.9V27.49Z"/><path class="cls-2" d="M586,155.09A48.94,48.94,0,0,1,559.64,148,46.75,46.75,0,0,1,542,127.81c-4.07-8.59-6.22-18.68-6.39-30V86.53c0-11.59,2.1-22,6.22-30.83a47.48,47.48,0,0,1,18-20.81A50.38,50.38,0,0,1,587,27.58c13.7,0,24.91,3.79,33.33,11.26S633.68,57,635,70.6l.2,1.93H610.85L610.67,71c-.94-8.22-3.31-14.17-7-17.7S594.31,48,587,48c-8.6,0-15,3-19.6,9.29s-7.05,15.85-7.16,28.3V96.27c0,12.63,2.26,22.35,6.7,28.88s10.6,9.52,19.07,9.52c7.75,0,13.61-1.72,17.4-5.11s6.26-9.25,7.3-17.4l.2-1.53h24.35l-.18,1.92c-1.25,13.28-6.25,23.81-14.85,31.29S600.1,155.09,586,155.09Z"/><path class="cls-2" d="M587,29.33q20,0,32.17,10.82T633.3,70.78H612.41q-1.49-13-7.58-18.78T587,46.24q-13.66,0-21,10t-7.5,29.33v10.7q0,19.58,7,29.87T586,136.42q12.35,0,18.57-5.55t7.87-18.48H633.3q-1.83,19.3-14.26,30.13T586,153.33a47.16,47.16,0,0,1-25.41-6.83,44.91,44.91,0,0,1-16.95-19.44q-6-12.6-6.21-29.26V86.53q0-17.09,6.05-30.09a45.58,45.58,0,0,1,17.36-20.06q11.33-7.05,26.15-7.05m0-3.5a52.16,52.16,0,0,0-28,7.57A49.32,49.32,0,0,0,540.27,55c-4.23,9.1-6.38,19.72-6.38,31.57V97.85c.17,11.56,2.38,21.89,6.56,30.71a48.48,48.48,0,0,0,18.26,20.91A50.73,50.73,0,0,0,586,156.84c14.56,0,26.47-3.93,35.37-11.68s14.15-18.7,15.45-32.44l.36-3.84H609.33l-.39,3.06c-1,7.72-3.26,13.21-6.74,16.32s-8.92,4.66-16.23,4.66c-7.85,0-13.61-2.86-17.62-8.75-4.24-6.24-6.4-15.62-6.4-27.9V85.57c.11-12,2.4-21.23,6.83-27.26C573,52.55,579,49.75,587,49.75c6.89,0,12.09,1.61,15.46,4.8s5.62,8.83,6.51,16.63l.36,3.1h27.88l-.38-3.85c-1.42-14.05-6.57-25.12-15.34-32.9S601.1,25.83,587,25.83Z"/><path class="cls-2" d="M717.42,113.4h-40v42.07H660.21V56.18h63.08V70.09H677.46V99.62h40Z"/><path class="cls-2" d="M755.13,155.47H738V56.18h17.18Z"/><path class="cls-2" d="M855.11,155.47H837.85L793.6,85v70.44H776.34V56.18H793.6L838,126.9V56.18h17.12Z"/><path class="cls-2" d="M931.08,132.36H892.62l-8,23.11H866.63l37.51-99.29h15.48l37.58,99.29h-18Zm-33.62-13.92h28.78L911.85,77.26Z"/><path class="cls-2" d="M1047.21,155.47H1030L985.7,85v70.44H968.45V56.18H985.7l44.4,70.72V56.18h17.11Z"/><path class="cls-2" d="M1143.37,123.15q-1.5,15.89-11.73,24.79t-27.21,8.9a38.71,38.71,0,0,1-20.9-5.63,36.93,36.93,0,0,1-14-16q-4.9-10.36-5.11-24.07v-9.28q0-14,5-24.75a37.44,37.44,0,0,1,14.28-16.5,39.83,39.83,0,0,1,21.52-5.8q16.43,0,26.46,8.9t11.66,25.2h-17.19q-1.22-10.71-6.24-15.45t-14.69-4.74Q1094,68.73,1088,77t-6.17,24.12v8.81q0,16.11,5.76,24.57t16.88,8.47q10.15,0,15.28-4.57t6.47-15.21Z"/><path class="cls-2" d="M1177,155.47H1159.8V56.18H1177Z"/><path class="cls-2" d="M1253.78,132.36h-38.47l-8,23.11h-17.94l37.51-99.29h15.48l37.58,99.29h-18Zm-33.62-13.92h28.77l-14.38-41.18Z"/><path class="cls-2" d="M1308.4,141.7h45.08v13.77h-62.33V56.18h17.25Z"/><path class="cls-2" d="M287.9,212.11a4.41,4.41,0,0,0-1.66-3.66,20.94,20.94,0,0,0-5.85-2.72,55.91,55.91,0,0,1-6.84-2.71q-8.64-4.25-8.64-11.67a10.51,10.51,0,0,1,2.15-6.52,13.93,13.93,0,0,1,6.09-4.39,23.7,23.7,0,0,1,8.86-1.58,20.71,20.71,0,0,1,8.59,1.71,13.6,13.6,0,0,1,5.91,4.87,12.7,12.7,0,0,1,2.11,7.22H287.93a5.37,5.37,0,0,0-1.66-4.21,6.48,6.48,0,0,0-4.51-1.5,7.34,7.34,0,0,0-4.53,1.27,3.72,3.72,0,0,0,.17,6.32,22.79,22.79,0,0,0,6.44,2.87,39.59,39.59,0,0,1,7.57,3.19q7.21,4.16,7.21,11.45a10.86,10.86,0,0,1-4.4,9.16q-4.39,3.33-12.06,3.33a23.83,23.83,0,0,1-9.79-1.94,14.69,14.69,0,0,1-6.59-5.31,13.82,13.82,0,0,1-2.22-7.77h10.75q0,3.57,1.85,5.27t6,1.69a6.93,6.93,0,0,0,4.2-1.14A3.79,3.79,0,0,0,287.9,212.11Z"/><path class="cls-2" d="M371.41,205.06H354.55v10.63h19.91v8.24H343.84V179.47h30.68v8.28h-20v9.37h16.86Z"/><path class="cls-2" d="M435.86,208.21h-5.8v15.72H419.34V179.47h17.5q7.91,0,12.37,3.51t4.45,9.91a14.43,14.43,0,0,1-1.87,7.69,13.38,13.38,0,0,1-5.88,4.94l9.28,17.95v.46H443.71Zm-5.8-8.25h6.78a6.1,6.1,0,0,0,4.6-1.6,7.31,7.31,0,0,0,0-9,6,6,0,0,0-4.58-1.64h-6.78Z"/><path class="cls-2" d="M515.3,211.84l8.85-32.37h12l-15,44.46H509.43l-14.84-44.46h11.88Z"/><path class="cls-2" d="M598.79,223.93H588.1V179.47h10.69Z"/><path class="cls-2" d="M690.1,208.88a16.3,16.3,0,0,1-2.51,8.2,15.09,15.09,0,0,1-6.42,5.51,21.93,21.93,0,0,1-9.45,1.95q-8.78,0-13.81-5.71t-5-16.12v-2.2a27,27,0,0,1,2.27-11.43,17.23,17.23,0,0,1,6.55-7.57,18.21,18.21,0,0,1,9.89-2.68q8.1,0,13,4.26t5.59,11.74H679.5c-.08-2.7-.76-4.65-2-5.83s-3.24-1.77-5.87-1.77a6.41,6.41,0,0,0-5.86,3c-1.24,2-1.89,5.18-2,9.56v3.14q0,7.13,1.78,10.17t6.16,3.06a8.21,8.21,0,0,0,5.64-1.75q2-1.74,2.08-5.52Z"/><path class="cls-2" d="M761.85,205.06H745v10.63h19.9v8.24H734.28V179.47H765v8.28H745v9.37h16.85Z"/><path class="cls-2" d="M834.52,211.5a4.41,4.41,0,0,0-1.67-3.66,20.43,20.43,0,0,0-5.84-2.72,55.91,55.91,0,0,1-6.84-2.71q-8.64-4.24-8.64-11.67a10.45,10.45,0,0,1,2.15-6.52,13.87,13.87,0,0,1,6.09-4.39,23.7,23.7,0,0,1,8.86-1.58,20.71,20.71,0,0,1,8.59,1.71,13.66,13.66,0,0,1,5.91,4.87,12.78,12.78,0,0,1,2.11,7.22H834.55a5.4,5.4,0,0,0-1.66-4.21,6.5,6.5,0,0,0-4.51-1.5,7.34,7.34,0,0,0-4.53,1.27,3.72,3.72,0,0,0,.17,6.32,22.94,22.94,0,0,0,6.44,2.87A39.59,39.59,0,0,1,838,200q7.2,4.15,7.21,11.45a10.86,10.86,0,0,1-4.4,9.16q-4.4,3.33-12.06,3.33A23.83,23.83,0,0,1,819,222a14.69,14.69,0,0,1-6.59-5.31,13.82,13.82,0,0,1-2.22-7.77h10.75q0,3.57,1.85,5.27t6,1.69a6.93,6.93,0,0,0,4.2-1.14A3.81,3.81,0,0,0,834.52,211.5Z"/></g></g></svg>